<svg id="Camada_1" data-name="Camada 1"  xmlns="http://www.w3.org/2000/svg" viewBox="0 0 1079.35 623.65"><defs><style>.cls-1{fill:#fff;fill-rule:evenodd;}</style></defs><path class="cls-1" d="M1047.86,286.41a31.49,31.49,0,1,1-31.49,31.49,31.49,31.49,0,0,1,31.49-31.49Zm0,6.15a25.34,25.34,0,1,0,25.34,25.34A25.35,25.35,0,0,0,1047.86,292.56Z"/><path class="cls-1" d="M1034.23,333.82V300.4h14.2a24.24,24.24,0,0,1,7.78.91,7.67,7.67,0,0,1,3.89,3.19,9.66,9.66,0,0,1,1.45,5.27,9,9,0,0,1-2.2,6.22,10.65,10.65,0,0,1-6.62,3.08,15.49,15.49,0,0,1,3.62,2.81,37.33,37.33,0,0,1,3.84,5.42l4.08,6.52h-8.07l-4.88-7.28a47,47,0,0,0-3.55-4.91,5.4,5.4,0,0,0-2-1.39,11.19,11.19,0,0,0-3.4-.37H1041v13.95Zm6.75-19.29h5a26.3,26.3,0,0,0,6.07-.4,3.65,3.65,0,0,0,1.89-1.42,4.38,4.38,0,0,0,.69-2.5,4.08,4.08,0,0,0-.9-2.73,4.18,4.18,0,0,0-2.55-1.31c-.54-.07-2.18-.11-4.92-.11H1041Z"/><path class="cls-1" d="M568,352.68h37.77c18,0,27.6,8,27.6,26.38v32q0,13.79-6.51,20.05c-8.93,8.61-25.53,6.33-37,6.33l56.35,51.4H605.37L568,449.76V414.14h25.19c4.93,0,8.28-.79,10.09-2.37,4.59-4,4.59-29.15,0-33.15q-2.72-2.37-10.09-2.38H568ZM501.27,488.84V352.68H568v23.56H529.23v37.9H568v35.62l-11.8-12.32H529.23v51.4Z"/><path class="cls-1" d="M187,488.84V352.68H312v23.17H215.38v30.42h56.39v23.17H215.38V463.2h97.76v25.64Z"/><path class="cls-1" d="M420.73,377V488.84H392.3V377h-56V352.68H477V377Z"/><path class="cls-1" d="M710.28,352.68V463.2h81V352.68h28.31v104c0,12.44-2.09,20.93-6.23,25.41s-12.19,6.77-24.06,6.77H712.13q-17.68,0-24-6.77t-6.31-25.41v-104Z"/><path class="cls-1" d="M872.89,392.11l52.57,80.37h8.43l49.22-75.25v91.6h26.34V352.68H986.69L930.42,435l-57.53-82.3h-23V488.83h23Z"/><path class="cls-1" d="M23,392.11l52.57,80.37H84l49.22-75.25v91.61h26.34V352.68H136.79L80.52,435,23,352.68H0V488.84H23Z"/><polygon class="cls-1" points="431.33 308.16 709.26 0 563.87 308.94 431.33 308.16"/><path class="cls-1" d="M501.23,81.7c149.63,0,271,121.35,271,271a270.06,270.06,0,0,1-21,104.66H722.42A243.56,243.56,0,0,0,745.9,352.68C745.9,217.57,636.34,108,501.23,108c-133.33,0-241.78,106.72-244.6,239.38h-26.3c2.81-147.19,123-265.69,270.9-265.69ZM732.56,493.83a271,271,0,0,1-462.33.48h31.53a244.64,244.64,0,0,0,399.32-.48Zm-481.09-36H280.3a243.9,243.9,0,0,1-9.58-23H243q3.75,11.76,8.52,23Zm-16.95-57.13h26.79c-1.25-6.32-2.28-12.72-3-19.21H231.79Q232.81,391.2,234.52,400.69Z"/></svg>
